# xmcd
#
# Track frame offsets:
#	183
#	14285
#	26863
#	40495
#	54063
#	72195
#	82225
#	90208
#	111168
#	123053
#	133415
#
# Disc length: 1971 seconds
#
# Revision: 1
# Processed by: cddbd v1.5PL3 Copyright (c) Steve Scherf et al.
# Submitted via: audiograbber 1.83.01
#
DISCID=8d07b10b
DTITLE=Bob Everhart And The Blackberry Pickers - No One Comes Near
DYEAR=1900
DGENRE=Bluegrass
TTITLE0=Wabash Cannonball
TTITLE1=Waitin' For A Train
TTITLE2=Columbus Stockade Blues
TTITLE3=Midnight Special
TTITLE4=No One Comes Near
TTITLE5=Walkin' The Floor Over You
TTITLE6=Sioux City Sioux
TTITLE7=Down In The Valley
TTITLE8=Goin' Down This Road
TTITLE9=Jambalaya
TTITLE10=Train
EXTD=
EXTT0=
EXTT1=
EXTT2=
EXTT3=
EXTT4=
EXTT5=
EXTT6=
EXTT7=
EXTT8=
EXTT9=
EXTT10=
PLAYORDER=
